Patient4_TMGait_0pt3_01_right_29_EMG.mot
version=1
nRows=20
nColumns=33
inDegrees=no
endheader
time	1LAddLong	2LGlutMax	3LGlutMed	4LIliopsoas	5LSemiMemb	6LBicFemLong	7LRecFem	8LVastMed	9LVastLat	10LGasMed	11LTibAnt	12lTibPost	13LPeroneusLong	14LSol	15LExtDigLong	16LFlexDigLong	17RAddLong	18RGlutMax	19RGlutMed	20RIliopsoas	21RSemiMemb	22RBicFemLong	23RRecFem	24RVastMed	25RVastLat	26RGasMed	27RTibAnt	28RTibPost	29RPeroneusLong	30RSol	31RExtDigLong	32RFlexDigLong
54.537	0.011749	0.014648	0.074005	0.009308	-0.068817	0.021667	-0.006714	0.00412	-0.015717	-0.022888	0.023041	-0.009766	-0.021057	0.097351	-0.20004	-0.008698	0.010376	-0.12299	-0.089874	0.14648	0.060883	0.015106	-0.003052	-0.050659	-0.033569	0.00946	0.0177	-0.065765	-0.1207	0.16235	-0.003052	-0.001678
54.538	-0.001526	0.015717	0.054932	0.009155	-0.065765	-0.002136	0.006561	0.004425	-0.015106	-0.048981	-0.026703	-0.009613	0.045929	0.033569	-0.95444	-0.020905	0.005035	-0.15182	0.018311	0.033112	-0.039825	-0.094452	-0.121	0.046387	0.10284	0.067139	0.068512	-0.071106	-0.29205	-0.052338	-0.002289	0.001373
54.539	0.001068	0.048065	0.04364	-0.009155	-0.065155	0.13901	-0.006256	0.008698	-0.022888	-0.037231	-0.35385	-0.00946	0.11124	-0.19592	-0.38223	-0.028687	0.010681	-0.17242	-0.14267	-0.080414	-0.024567	-0.11978	-0.28076	0.38528	0.49805	0.11093	0.11704	-0.089111	-0.083466	-0.2385	-0.002747	-0.007629
54.54	0.001373	0.049591	0.049286	0.006104	0.001068	0.22705	0.010223	0.002899	-0.018616	0.003967	-0.41	-0.003204	0.061951	-0.35919	-0.22156	-0.028381	0.018768	-0.20783	-0.14694	-0.12329	-0.068207	-0.04303	-0.35172	0.24689	0.41718	-0.001221	0.069122	-0.076141	0.19653	-0.049133	-0.00885	-0.006866
54.541	0.002899	0.023651	0.063171	0.013123	0.036469	0.24811	0.006866	0.000916	-0.016174	0.02655	-0.177	-0.014954	-0.061493	-0.33173	-0.12878	-0.028381	0.015411	-0.21118	0.048218	-0.12375	-0.050354	-0.006866	-0.23102	0.050964	0.20599	0.012207	-0.00885	0.14267	0.035553	-0.29694	-0.000305	-0.008545
54.542	-0.007629	0.076904	0.051575	0.020599	0.034637	-0.050659	0.00473	0	0.007629	0.02594	-0.12573	-0.010223	-0.054016	-0.39749	-0.25604	-0.015869	0.007935	-0.14008	-0.20325	0.061646	-0.045471	0.030823	-0.19836	-0.1207	-0.044098	0.058746	-0.17258	0.11337	0.040436	-0.51437	-0.006104	-0.013275
54.543	-0.009918	0.050049	0.030518	0.005188	0.029755	-0.18219	-0.005951	0.002899	0.00412	0.031586	-0.10513	-0.003204	0.027313	-0.31036	-0.2034	-0.019684	0.000458	-0.11383	-0.2388	0.20279	-0.068207	0.20416	-0.24277	-0.1239	-0.29877	0.02243	-0.177	-0.072479	-0.044403	-0.54123	-0.001068	-0.012665
54.544	-0.014954	-0.005341	0.045013	0.014038	0.026245	-0.2803	0.012665	0.00473	0.010986	0.027466	0.016327	-0.00473	0.005798	-0.27924	0.080872	-0.019226	-0.003967	-0.168	-0.23697	0.1947	-0.069275	0.24521	-0.20218	-0.034332	-0.49423	0.004578	-0.14862	0.12589	-0.070038	-0.22797	-0.001068	-0.004883
54.545	-0.010223	0.022125	0.054626	0.00824	0.023499	-0.004883	0.014801	0.002594	-0.003357	0.032043	0.12161	-0.001373	-0.038452	-0.23941	0.19424	-0.019073	0.015411	-0.20447	-0.17929	0.098419	-0.103	0.13916	0.053864	0.003357	-0.46432	0.004578	-0.17227	0.032654	0.081177	-0.10269	-0.003052	0.002594
54.546	-0.002747	0.066223	0.056152	0.006104	-0.003357	0.13718	0.005341	0.005035	0.023499	0.035095	0.1059	-0.002289	-0.007019	-0.13184	0.22156	-0.013733	0.015869	-0.15945	-0.35202	0.035095	-0.10666	-0.062561	0.15152	-0.095062	-0.1535	0.027313	-0.21088	-0.32791	0.1004	0.13992	0.004578	-0.001526
54.547	0.013885	0.083466	0.050354	0.003357	-0.002136	0.14206	-0.017548	-0.004425	0.026093	0.002747	-0.040436	-0.015106	-0.002136	-0.060577	0.31525	-0.004578	0.005493	-0.058289	-0.59815	0.029907	-0.042114	-0.11307	0.06958	-0.034027	-0.054779	0.010529	-0.079956	0.16373	0.36972	-0.20004	0.002136	-0.001373
54.548	0.017548	0.094757	0.064392	0.001373	-0.007019	0.077667	-0.009766	-0.011444	0.034943	0.018158	-0.006714	-0.003204	-0.088501	-0.13199	0.48325	-0.012512	0.000305	-0.1651	-0.41763	-0.078125	0.056458	-0.19592	-0.002594	-0.031586	-0.029297	0.002136	0.1033	0.16007	0.076294	-0.19394	-0.000153	-0.002441
54.549	0.023499	0.1001	0.062866	0.000458	-0.010529	-0.034943	-0.007477	-0.005798	0.039215	0.006256	-0.032806	-0.006866	-0.043182	-0.16098	0.45044	0.000458	0.017548	-0.23468	0.13153	-0.074921	0.060272	-0.42557	-0.006866	-0.008698	-0.012817	0.002441	0.20874	0.074615	0.23346	-0.026093	-0.003967	-0.007629
54.55	0.020599	0.13092	0.050659	0.001068	0.006561	-0.025787	-0.015106	-0.006866	0.033722	0.015564	-0.033264	0.001678	-0.033264	-0.16388	0.29358	-0.002899	0.033264	-0.22659	0.1915	-0.043182	0.040131	-0.70877	-0.069733	0.038605	0.002136	-0.018005	0.2182	0.015869	0.89752	0.032349	0.002899	-0.006561
54.551	0.014648	0.15243	0.067291	0.016479	0.034332	-0.066528	-0.016632	-0.007477	0.036163	0.011292	-0.049133	0.001526	-0.057068	-0.053711	0.1828	-0.006256	0.039978	-0.2858	0.12924	-0.029907	0.11139	-0.88379	-0.048981	0.079193	0.055847	0.000305	0.19653	-0.000763	0.60043	-0.087891	0.00061	-0.004425
54.552	0.006104	0.15289	0.10864	0.030823	0.046234	-0.03479	-0.023041	-0.00061	0.039215	0.019531	-0.008545	-0.002289	-0.11032	0.024261	0.14832	-0.002136	0.070801	-0.43778	0.12894	-0.042725	0.090027	-0.67184	-0.10269	0.07843	0.050354	-0.002441	0.13168	-0.02121	0.075226	-0.017242	-0.001373	-0.005951
54.553	0.009003	0.16266	0.10788	0.027161	0.051575	0.014343	0.000763	-0.005493	0.026245	0.045013	0.10635	0.001068	-0.16785	-0.023041	-0.020752	0.00946	0.084686	-0.6044	-0.02243	-0.033417	0.008545	-0.26779	-0.08194	0.038757	0.056763	0.003357	0.078125	-0.024872	-0.91888	0.043182	-0.00824	-0.002136
54.554	0.007935	0.21316	0.084991	0.002899	0.045319	-0.025787	0.011597	-0.003967	0.02655	0.050812	0.1091	-0.001984	-0.13672	0.018921	0.55039	-0.010071	0.049133	-0.49377	-0.10422	-0.006561	-0.2594	0.26108	-0.065002	0.051727	0.071106	0.014648	-0.23743	-0.016937	-1.228	-0.055237	-0.000305	-0.006561
54.555	0.00473	0.20416	0.058136	0.011292	0.032043	0.007477	-0.010071	-0.011902	0.037842	-0.001831	0.094452	0.002441	0.029449	0.075989	0.075531	0.005188	-0.030823	-0.57159	-0.16571	-0.008087	-0.29297	0.3096	-0.070953	0.12512	0.081787	0.023193	-0.35385	-0.037994	1.3484	-0.18295	-0.00351	-0.002899
54.556	0.007629	0.19684	0.081329	0.021973	0.038757	0.015564	-0.016022	-0.012665	0.032043	-0.017548	0.077209	0.000153	0.11917	0.11047	0.16449	0.004272	-0.095215	-0.634	-0.16083	0.013275	-0.24796	0.39078	-0.029602	0.075684	0.077057	0.01236	-0.18539	-0.029755	-0.32501	-0.17105	-0.001678	-0.000458
